# xmcd
#
# Track frame offsets:
#	150
#	19417
#	42943
#	68336
#	92255
#	112244
#	134973
#	161410
#	184931
#	212599
#
# Disc length: 3129 seconds
#
# Revision: 2
# Processed by: cddbd v1.5.2PL0 Copyright (c) Steve Scherf et al.
# Submitted via: EZCDAudioConverter 8.0.2.1
#
DISCID=8a0c370a
DTITLE=Hồng Trúc - 14. Kể ChuyệnTrong Đêm
DYEAR=2002
DGENRE=country
TTITLE0=Cánh buồm chuyển bến
TTITLE1=Tàu đêm năm cũ
TTITLE2=Nén hương yêu
TTITLE3=Vì lỡ thương nhau
TTITLE4=Vườn thu
TTITLE5=Người yêu cô đơn
TTITLE6=Kể ChuyệnTrong Đêm
TTITLE7=Nếu ta đừng quen nhau
TTITLE8=Lưu bút ngày xanh
TTITLE9=Phượng buồn
EXTD=
EXTT0=
EXTT1=
EXTT2=
EXTT3=
EXTT4=
EXTT5=
EXTT6=
EXTT7=
EXTT8=
EXTT9=
PLAYORDER=
